<?xml version="1.0" encoding="UTF-8"?>
<svg xmlns="http://www.w3.org/2000/svg" version="1.1" viewBox="0 0 412.2 180">
  <defs>
    <style>
      .cls-1 {
        fill: #fff;
      }

      .cls-2 {
        fill: #5b01ff;
      }
    </style>
  </defs>
  <!-- Generator: Adobe Illustrator 28.7.2, SVG Export Plug-In . SVG Version: 1.2.0 Build 154)  -->
  <g>
    <g id="Isolation_Mode">
      <g>
        <path class="cls-2" d="M129.8,76.5c0,34.6-28.1,62.7-62.7,62.7S4.4,111.2,4.4,76.5,32.5,13.8,67.1,13.8s62.7,28.1,62.7,62.7"/>
        <polygon class="cls-1" points="41.3 28.9 30.1 122.8 43.6 122.8 49.1 78.1 81.5 78.1 83 65.8 50.6 65.8 53.5 42.3 86 42.3 87.6 28.9 41.3 28.9"/>
        <path class="cls-1" d="M121.7,42.3c11.4,0,17.2,4.5,17.2,13.3s-1.5,9.7-4.6,12.6c-3,2.9-7.5,4.4-13.2,4.4h-9l3.7-30.2h5.8ZM91.4,122.8h13.9l4.7-37.9h10.2c12.1,0,20.9-3.7,26.5-11.3,3.7-5.1,5.6-11.1,5.6-17.8s-1-9-3-13.2c-2.1-4.1-4.9-7.2-8.5-9.5-4.4-2.7-10.6-4.1-18.9-4.1h-18.9l-11.7,93.8Z"/>
        <polygon class="cls-1" points="217.8 42.3 219.4 28.9 162.2 28.9 160.5 42.3 182.6 42.3 173 122.8 186.4 122.8 196.4 42.3 217.8 42.3"/>
        <path class="cls-1" d="M255.2,55.3l10.1,33.3h-26.5l16.4-33.3ZM269.2,101l6.8,21.8h14.4l-32.4-100.5-51.9,100.5h15.2l11.3-21.8h36.5Z"/>
        <polyline class="cls-2" points="337.6 139.3 371.6 76.3 337.6 13.4 373.7 13.4 407.8 76.3 373.7 139.3 337.6 139.3"/>
        <polyline class="cls-2" points="291.1 139.5 325.1 76.5 291.1 13.6 327.2 13.6 361.3 76.5 327.2 139.5 291.1 139.5"/>
        <polygon class="cls-1" points="31.9 147.3 30.2 161.3 32.2 161.3 33.1 154.6 37.9 154.6 38.1 152.8 33.3 152.8 33.7 149.3 38.6 149.3 38.8 147.3 31.9 147.3"/>
        <polygon class="cls-1" points="41 146 39.1 161.3 41.1 161.3 43 146 41 146"/>
        <path class="cls-1" d="M50.6,159c-.5.5-1.2.8-1.9.8s-1.4-.3-1.9-.8c-.5-.5-.7-1.1-.7-2s.3-1.5.8-2c.5-.5,1.2-.8,2-.8s1.4.2,1.9.7c.5.5.7,1.1.7,1.9s-.3,1.5-.8,2.1ZM52.1,153.9c-.9-.8-2-1.2-3.3-1.2s-2.5.4-3.4,1.2c-.9.8-1.4,1.9-1.4,3.1s.4,2.2,1.3,3,2,1.2,3.4,1.2,2.4-.4,3.3-1.2,1.4-1.9,1.4-3.1-.4-2.2-1.3-3Z"/>
        <path class="cls-1" d="M56.2,152.7l-1.1,8.5h2l.5-4.3c0-.5.1-.9.2-1.2,0-.3.2-.6.4-.8.1-.2.3-.4.5-.5.2,0,.4-.1.7-.1.4,0,.7.1,1.1.5l1.3-1.4c-.5-.4-1-.5-1.7-.5s-1.4.2-2,.7v-.7c0,0-1.9,0-1.9,0Z"/>
        <path class="cls-1" d="M63.4,152.7l-1.1,8.5h2l1.1-8.5h-2ZM65.7,147.9c-.2-.2-.5-.3-.8-.3s-.5.1-.7.3c-.2.2-.3.5-.3.8s.1.6.3.8c.2.2.5.3.8.3s.5-.1.8-.3c.2-.2.3-.5.3-.8s-.1-.6-.3-.8Z"/>
        <path class="cls-1" d="M73.5,158.9c-.5.6-1.2.9-1.9.9s-1.3-.2-1.7-.7c-.4-.4-.7-1-.7-1.8s.3-1.6.8-2.2c.5-.6,1.2-.9,1.9-.9s1.3.2,1.8.7c.4.4.7,1,.7,1.7s-.3,1.6-.8,2.2ZM75.7,146l-1,8.3c-.5-.6-1-.9-1.4-1.2s-1-.3-1.6-.3c-1.3,0-2.3.4-3.2,1.3-.8.8-1.2,1.9-1.2,3.2s.4,2.2,1.2,3,1.7,1.1,2.9,1.1,1,0,1.3,0c.4-.1.8-.5,1.3-.9v.9c0,0,1.9,0,1.9,0l1.9-15.3h-2Z"/>
        <path class="cls-1" d="M84.9,158.9c-.5.6-1.2.9-1.9.9s-1.2-.2-1.6-.7c-.4-.5-.6-1.1-.6-1.8s.3-1.5.8-2.1c.5-.6,1.1-.9,1.9-.9s1.2.2,1.7.7c.4.5.7,1.1.7,1.8s-.3,1.5-.8,2.1ZM86.2,152.7v1.1c-.6-.5-1-.8-1.5-1-.4,0-.9,0-1.6,0-1.3,0-2.3.4-3.2,1.3-.8.9-1.2,2-1.2,3.3s.4,2.1,1.1,2.9c.7.7,1.6,1.1,2.8,1.1s1.8-.3,2.7-.9v.9c-.1,0,1.9,0,1.9,0l1-8.5h-2Z"/>
        <path class="cls-1" d="M100.4,149.3c1.7,0,2.6.7,2.6,2s-.2,1.4-.7,1.9c-.4.4-1.1.7-2,.7h-1.3l.6-4.5h.9ZM95.9,161.3h2.1l.7-5.7h1.5c1.8,0,3.1-.6,4-1.7.6-.8.8-1.7.8-2.7s-.1-1.3-.4-2c-.3-.6-.7-1.1-1.3-1.4-.7-.4-1.6-.6-2.8-.6h-2.8l-1.7,14Z"/>
        <path class="cls-1" d="M112.4,152.7l-.6,5c0,.7-.3,1.2-.5,1.5-.3.3-.7.4-1.3.4-1.1,0-1.6-.4-1.6-1.3s0-.2,0-.4c0-.1,0-.3,0-.5l.6-4.8h-2l-.6,4.5c0,.2,0,.4,0,.6,0,.2,0,.3,0,.5,0,.9.3,1.6.9,2.1.6.5,1.5.8,2.5.8s2-.3,2.7-.8c.4-.3.7-.7.9-1.1,0-.2.2-.5.2-.8,0-.3.1-.7.2-1.1l.6-4.8h-2Z"/>
        <path class="cls-1" d="M123,158.9c-.5.6-1.2.9-2,.9s-1.3-.2-1.7-.7c-.4-.5-.7-1.1-.7-1.8s.3-1.6.8-2.2c.5-.6,1.2-.9,2-.9s1.3.2,1.8.7c.5.5.7,1.1.7,1.8s-.3,1.5-.8,2.1ZM118,146l-1.9,15.3h2v-1.2c1,.8,2,1.2,3.2,1.2s2.3-.4,3.2-1.3c.9-.9,1.3-1.9,1.3-3.2s-.4-2.1-1.1-2.9c-.8-.8-1.7-1.2-2.9-1.2s-.9,0-1.3.2c-.4.1-.8.4-1.4.8l.9-7.8h-2Z"/>
        <polygon class="cls-1" points="129.4 146 127.5 161.3 129.6 161.3 131.4 146 129.4 146"/>
        <path class="cls-1" d="M133.4,152.7l-1.1,8.5h2l1.1-8.5h-2ZM135.7,147.9c-.2-.2-.5-.3-.8-.3s-.5.1-.7.3c-.2.2-.3.5-.3.8s.1.6.3.8c.2.2.5.3.8.3s.5-.1.8-.3c.2-.2.3-.5.3-.8s-.1-.6-.3-.8Z"/>
        <path class="cls-1" d="M141.6,152.7c-1.2,0-2.3.4-3.1,1.3-.8.9-1.3,1.9-1.3,3.2s.4,2.2,1.2,3c.8.8,1.8,1.2,3,1.2s1.4-.1,2.2-.4l.3-2c-.7.6-1.5.9-2.2.9s-1.3-.2-1.8-.7c-.5-.5-.7-1.1-.7-1.9s.2-1.5.7-2.1c.5-.5,1.1-.8,1.9-.8s.9.1,1.3.3c.4.2.8.6,1.2,1.1l.3-2c-.9-.7-1.9-1-3-1Z"/>
        <polygon class="cls-1" points="160.2 149.3 160.4 147.3 151.9 147.3 151.6 149.3 154.9 149.3 153.5 161.3 155.5 161.3 157 149.3 160.2 149.3"/>
        <path class="cls-1" d="M160.6,152.7l-1.1,8.5h2l.5-4.3c0-.5.1-.9.2-1.2,0-.3.2-.6.4-.8.1-.2.3-.4.5-.5.2,0,.4-.1.7-.1.4,0,.7.1,1.1.5l1.3-1.4c-.5-.4-1-.5-1.7-.5s-1.4.2-2,.7v-.7c0,0-1.9,0-1.9,0Z"/>
        <path class="cls-1" d="M172.7,158.9c-.5.6-1.2.9-1.9.9s-1.2-.2-1.6-.7c-.4-.5-.6-1.1-.6-1.8s.3-1.5.8-2.1c.5-.6,1.1-.9,1.9-.9s1.2.2,1.7.7c.4.5.7,1.1.7,1.8s-.3,1.5-.8,2.1ZM174,152.7v1.1c-.6-.5-1-.8-1.5-1-.4,0-.9,0-1.6,0-1.3,0-2.3.4-3.2,1.3-.8.9-1.2,2-1.2,3.3s.4,2.1,1.1,2.9c.7.7,1.6,1.1,2.8,1.1s1.8-.3,2.7-.9v.9c-.1,0,1.9,0,1.9,0l1-8.5h-2Z"/>
        <path class="cls-1" d="M178.8,152.7l-1.1,8.5h2l.5-4.1c0-.3,0-.7.1-.9,0-.3.1-.5.2-.7.1-.4.4-.7.7-.9.4-.3.8-.5,1.3-.5.8,0,1.2.4,1.2,1.2s0,.2,0,.4c0,.1,0,.3,0,.5l-.6,5h2l.6-4.5c0-.6.1-1.1.1-1.5,0-.8-.2-1.4-.7-1.9-.5-.5-1.2-.7-2-.7s-1.6.3-2.4.8v-.8c0,0-1.9,0-1.9,0Z"/>
        <path class="cls-1" d="M191.4,152.7c-.9,0-1.6.2-2.2.7-.6.5-.9,1.1-.9,1.8s.1.9.4,1.2c.2.3.7.7,1.3,1,.4.2.7.3.9.5.2.1.4.2.4.3.2.1.3.3.3.6s0,.5-.3.7c-.2.2-.5.3-.8.3-.6,0-1.2-.3-1.7-1l-1.3.9c.8,1.1,1.9,1.6,3.1,1.6s1.7-.2,2.2-.7c.6-.5.9-1.1.9-1.8s-.1-.9-.4-1.3c-.3-.3-.8-.7-1.5-1.1-.5-.3-.9-.5-1.1-.7-.2-.1-.3-.4-.3-.6s.1-.4.3-.6.4-.2.8-.2.9.2,1.5.7l1.2-1.1c-.8-.8-1.7-1.1-2.7-1.1Z"/>
        <path class="cls-1" d="M202.3,158.9c-.5.6-1.2.9-1.9.9s-1.3-.2-1.8-.7c-.5-.5-.7-1.1-.7-1.8s.3-1.6.8-2.1c.5-.6,1.2-.9,2-.9s1.2.2,1.7.7c.4.5.7,1.1.7,1.8s-.3,1.5-.8,2.1ZM196.5,152.7l-1.7,13.4h2l.8-6.3c.5.5.9.9,1.4,1.1s1,.3,1.6.3c1.3,0,2.3-.4,3.2-1.3.9-.9,1.3-2,1.3-3.3s-.4-2.1-1.1-2.9c-.8-.8-1.7-1.1-2.8-1.1s-1.9.3-2.7.9v-.9c.1,0-1.9,0-1.9,0Z"/>
        <path class="cls-1" d="M213.5,159c-.5.5-1.2.8-1.9.8s-1.4-.3-1.9-.8c-.5-.5-.7-1.1-.7-2s.3-1.5.8-2c.5-.5,1.2-.8,2-.8s1.4.2,1.9.7c.5.5.7,1.1.7,1.9s-.3,1.5-.8,2.1ZM215,153.9c-.9-.8-2-1.2-3.3-1.2s-2.5.4-3.4,1.2c-.9.8-1.4,1.9-1.4,3.1s.4,2.2,1.3,3,2,1.2,3.4,1.2,2.4-.4,3.3-1.2,1.4-1.9,1.4-3.1-.4-2.2-1.3-3Z"/>
        <path class="cls-1" d="M219.1,152.7l-1.1,8.5h2l.5-4.3c0-.5.1-.9.2-1.2,0-.3.2-.6.4-.8.1-.2.3-.4.5-.5.2,0,.4-.1.7-.1.4,0,.7.1,1.1.5l1.3-1.4c-.5-.4-1-.5-1.7-.5s-1.4.2-2,.7v-.7c0,0-1.9,0-1.9,0Z"/>
        <polygon class="cls-1" points="230.6 154.6 230.8 152.7 229 152.7 229.5 148.8 227.5 148.8 227 152.7 225.9 152.7 225.6 154.6 226.7 154.6 225.9 161.3 227.9 161.3 228.8 154.6 230.6 154.6"/>
        <path class="cls-1" d="M237.8,158.9c-.5.6-1.2.9-1.9.9s-1.2-.2-1.6-.7c-.4-.5-.6-1.1-.6-1.8s.3-1.5.8-2.1c.5-.6,1.1-.9,1.9-.9s1.2.2,1.7.7c.4.5.7,1.1.7,1.8s-.3,1.5-.8,2.1ZM239,152.7v1.1c-.6-.5-1-.8-1.5-1-.4,0-.9,0-1.6,0-1.3,0-2.3.4-3.2,1.3-.8.9-1.2,2-1.2,3.3s.4,2.1,1.1,2.9c.7.7,1.6,1.1,2.8,1.1s1.8-.3,2.7-.9v.9c-.1,0,1.9,0,1.9,0l1-8.5h-2Z"/>
        <polygon class="cls-1" points="247.6 154.6 247.8 152.7 246 152.7 246.4 148.8 244.4 148.8 244 152.7 242.8 152.7 242.6 154.6 243.7 154.6 242.9 161.3 244.9 161.3 245.7 154.6 247.6 154.6"/>
        <path class="cls-1" d="M249.2,152.7l-1.1,8.5h2l1.1-8.5h-2ZM251.5,147.9c-.2-.2-.5-.3-.8-.3s-.5.1-.7.3c-.2.2-.3.5-.3.8s.1.6.3.8c.2.2.5.3.8.3s.5-.1.8-.3c.2-.2.3-.5.3-.8s-.1-.6-.3-.8Z"/>
        <path class="cls-1" d="M259.6,159c-.5.5-1.2.8-1.9.8s-1.4-.3-1.9-.8c-.5-.5-.7-1.1-.7-2s.3-1.5.8-2c.5-.5,1.2-.8,2-.8s1.4.2,1.9.7c.5.5.7,1.1.7,1.9s-.3,1.5-.8,2.1ZM261.1,153.9c-.9-.8-2-1.2-3.3-1.2s-2.5.4-3.4,1.2c-.9.8-1.4,1.9-1.4,3.1s.4,2.2,1.3,3c.9.8,2,1.2,3.4,1.2s2.4-.4,3.3-1.2c.9-.8,1.4-1.9,1.4-3.1s-.4-2.2-1.3-3Z"/>
        <path class="cls-1" d="M265.2,152.7l-1.1,8.5h2l.5-4.1c0-.3,0-.7.1-.9,0-.3.1-.5.2-.7.1-.4.4-.7.7-.9.4-.3.8-.5,1.3-.5.8,0,1.2.4,1.2,1.2s0,.2,0,.4c0,.1,0,.3,0,.5l-.6,5h2l.6-4.5c0-.6.1-1.1.1-1.5,0-.8-.2-1.4-.7-1.9-.5-.5-1.2-.7-2-.7s-1.6.3-2.4.8v-.8c0,0-1.9,0-1.9,0Z"/>
        <path class="cls-1" d="M286.6,151.2l1.5,5h-4l2.5-5ZM288.7,158l1,3.3h2.2l-4.8-15-7.7,15h2.3l1.7-3.3h5.4Z"/>
        <path class="cls-1" d="M296.7,152.7c-.9,0-1.6.2-2.2.7-.6.5-.9,1.1-.9,1.8s.1.9.4,1.2c.2.3.7.7,1.3,1,.4.2.7.3.9.5.2.1.4.2.4.3.2.1.3.3.3.6s0,.5-.3.7c-.2.2-.5.3-.8.3-.6,0-1.2-.3-1.7-1l-1.3.9c.8,1.1,1.9,1.6,3.1,1.6s1.7-.2,2.2-.7c.6-.5.9-1.1.9-1.8s-.1-.9-.4-1.3c-.3-.3-.8-.7-1.5-1.1-.5-.3-.9-.5-1.1-.7-.2-.1-.3-.4-.3-.6s.1-.4.3-.6c.2-.2.4-.2.8-.2s.9.2,1.5.7l1.2-1.1c-.8-.8-1.7-1.1-2.7-1.1Z"/>
        <path class="cls-1" d="M304.2,152.7c-.9,0-1.6.2-2.2.7-.6.5-.9,1.1-.9,1.8s.1.9.4,1.2c.2.3.7.7,1.3,1,.4.2.7.3.9.5.2.1.4.2.4.3.2.1.3.3.3.6s0,.5-.3.7c-.2.2-.5.3-.8.3-.6,0-1.2-.3-1.7-1l-1.3.9c.8,1.1,1.9,1.6,3.1,1.6s1.7-.2,2.2-.7c.6-.5.9-1.1.9-1.8s-.1-.9-.4-1.3c-.3-.3-.8-.7-1.5-1.1-.5-.3-.9-.5-1.1-.7-.2-.1-.3-.4-.3-.6s.1-.4.3-.6c.2-.2.4-.2.8-.2s.9.2,1.5.7l1.2-1.1c-.8-.8-1.7-1.1-2.7-1.1Z"/>
        <path class="cls-1" d="M314.9,159c-.5.5-1.2.8-1.9.8s-1.4-.3-1.9-.8c-.5-.5-.7-1.1-.7-2s.3-1.5.8-2c.5-.5,1.2-.8,2-.8s1.4.2,1.9.7c.5.5.7,1.1.7,1.9s-.3,1.5-.8,2.1ZM316.4,153.9c-.9-.8-2-1.2-3.3-1.2s-2.5.4-3.4,1.2c-.9.8-1.4,1.9-1.4,3.1s.4,2.2,1.3,3,2,1.2,3.4,1.2,2.4-.4,3.3-1.2,1.4-1.9,1.4-3.1-.4-2.2-1.3-3Z"/>
        <path class="cls-1" d="M323.8,152.7c-1.2,0-2.3.4-3.1,1.3-.8.9-1.3,1.9-1.3,3.2s.4,2.2,1.2,3,1.8,1.2,3,1.2,1.4-.1,2.2-.4l.3-2c-.7.6-1.5.9-2.2.9s-1.3-.2-1.8-.7c-.5-.5-.7-1.1-.7-1.9s.2-1.5.7-2.1c.5-.5,1.1-.8,1.9-.8s.9.1,1.3.3.8.6,1.2,1.1l.3-2c-.9-.7-1.9-1-3-1Z"/>
        <path class="cls-1" d="M329,152.7l-1.1,8.5h2l1.1-8.5h-2ZM331.3,147.9c-.2-.2-.5-.3-.8-.3s-.5.1-.7.3c-.2.2-.3.5-.3.8s.1.6.3.8c.2.2.5.3.8.3s.5-.1.8-.3c.2-.2.3-.5.3-.8s-.1-.6-.3-.8Z"/>
        <path class="cls-1" d="M338.9,158.9c-.5.6-1.2.9-1.9.9s-1.2-.2-1.6-.7c-.4-.5-.6-1.1-.6-1.8s.3-1.5.8-2.1c.5-.6,1.1-.9,1.9-.9s1.2.2,1.7.7c.4.5.7,1.1.7,1.8s-.3,1.5-.8,2.1ZM340.2,152.7v1.1c-.6-.5-1-.8-1.5-1-.4,0-.9,0-1.6,0-1.3,0-2.3.4-3.2,1.3-.8.9-1.2,2-1.2,3.3s.4,2.1,1.1,2.9c.7.7,1.6,1.1,2.8,1.1s1.8-.3,2.7-.9v.9c-.1,0,1.9,0,1.9,0l1-8.5h-2Z"/>
        <polygon class="cls-1" points="348.7 154.6 348.9 152.7 347.1 152.7 347.6 148.8 345.6 148.8 345.1 152.7 344 152.7 343.7 154.6 344.9 154.6 344 161.3 346 161.3 346.9 154.6 348.7 154.6"/>
        <path class="cls-1" d="M350.4,152.7l-1.1,8.5h2l1.1-8.5h-2ZM352.7,147.9c-.2-.2-.5-.3-.8-.3s-.5.1-.7.3c-.2.2-.3.5-.3.8s.1.6.3.8c.2.2.5.3.8.3s.5-.1.8-.3c.2-.2.3-.5.3-.8s-.1-.6-.3-.8Z"/>
        <path class="cls-1" d="M360.8,159c-.5.5-1.2.8-1.9.8s-1.4-.3-1.9-.8c-.5-.5-.7-1.1-.7-2s.3-1.5.8-2c.5-.5,1.2-.8,2-.8s1.4.2,1.9.7c.5.5.7,1.1.7,1.9s-.3,1.5-.8,2.1ZM362.3,153.9c-.9-.8-2-1.2-3.3-1.2s-2.5.4-3.4,1.2c-.9.8-1.4,1.9-1.4,3.1s.4,2.2,1.3,3c.9.8,2,1.2,3.4,1.2s2.4-.4,3.3-1.2,1.4-1.9,1.4-3.1-.4-2.2-1.3-3Z"/>
        <path class="cls-1" d="M366.4,152.7l-1.1,8.5h2l.5-4.1c0-.3,0-.7.1-.9,0-.3.1-.5.2-.7.1-.4.4-.7.7-.9.4-.3.8-.5,1.3-.5.8,0,1.2.4,1.2,1.2s0,.2,0,.4c0,.1,0,.3,0,.5l-.6,5h2l.6-4.5c0-.6.1-1.1.1-1.5,0-.8-.2-1.4-.7-1.9-.5-.5-1.2-.7-2-.7s-1.6.3-2.4.8v-.8c0,0-1.9,0-1.9,0Z"/>
      </g>
    </g>
  </g>
</svg>